HIERARCHY
ROOT hip
{
  OFFSET 0 0 0
  CHANNELS 6 Xposition Yposition Zposition Zrotation Yrotation Xrotation
  JOINT abdomen
  {
    OFFSET 0 20.6881 -0.73152
    CHANNELS 3 Zrotation Xrotation Yrotation
    JOINT chest
    {
      OFFSET 0 11.7043 -0.48768
      CHANNELS 3 Zrotation Xrotation Yrotation
      JOINT neck
      {
        OFFSET 0 22.1894 -2.19456
        CHANNELS 3 Zrotation Xrotation Yrotation
        JOINT head
        {
          OFFSET -0.24384 7.07133 1.2192
          CHANNELS 3 Zrotation Xrotation Yrotation
          JOINT leftEye
          {
            OFFSET 4.14528 8.04674 8.04672
            CHANNELS 3 Zrotation Xrotation Yrotation
            End Site
            {
              OFFSET 1 0 0
            }
          }
          JOINT rightEye
          {
            OFFSET -3.6576 8.04674 8.04672
            CHANNELS 3 Zrotation Xrotation Yrotation
            End Site
            {
              OFFSET 1 0 0
            }
          }
        }
      }
      JOINT rCollar
      {
        OFFSET -2.68224 19.2634 -4.8768
        CHANNELS 3 Zrotation Xrotation Yrotation
        JOINT rShldr
        {
          OFFSET -8.77824 -1.95073 1.46304
          CHANNELS 3 Zrotation Xrotation Yrotation
          JOINT rForeArm
          {
            OFFSET -28.1742 -1.7115 0.48768
            CHANNELS 3 Zrotation Xrotation Yrotation
            JOINT rHand
            {
              OFFSET -22.5879 0.773209 7.07136
              CHANNELS 3 Zrotation Xrotation Yrotation
              JOINT rThumb1
              {
                OFFSET -1.2192 -0.487915 3.41376
                CHANNELS 3 Zrotation Xrotation Yrotation
                JOINT rThumb2
                {
                  OFFSET -3.37035 -0.52449 3.41376
                  CHANNELS 3 Zrotation Xrotation Yrotation
                  End Site
                  {
                    OFFSET -1.78271 -1.18214 1.43049
                  }
                }
              }
              JOINT rIndex1
              {
                OFFSET -7.75947 0.938293 5.60832
                CHANNELS 3 Zrotation Xrotation Yrotation
                JOINT rIndex2
                {
                  OFFSET -2.54057 -0.884171 1.56538
                  CHANNELS 3 Zrotation Xrotation Yrotation
                  End Site
                  {
                    OFFSET -1.62519 -0.234802 1.16502
                  }
                }
              }
              JOINT rMid1
              {
                OFFSET -8.24714 1.18213 3.41376
                CHANNELS 3 Zrotation Xrotation Yrotation
                JOINT rMid2
                {
                  OFFSET -3.10165 -0.590103 1.0647
                  CHANNELS 3 Zrotation Xrotation Yrotation
                  End Site
                  {
                    OFFSET -2.48547 -0.328903 0.83742
                  }
                }
              }
              JOINT rRing1
              {
                OFFSET -8.82822 0.546677 1.51678
                CHANNELS 3 Zrotation Xrotation Yrotation
                JOINT rRing2
                {
                  OFFSET -2.60934 -0.819778 -0.0198488
                  CHANNELS 3 Zrotation Xrotation Yrotation
                  End Site
                  {
                    OFFSET -2.33842 -0.294052 0.168128
                  }
                }
              }
              JOINT rPinky1
              {
                OFFSET -8.27202 -0.0477905 -0.4584
                CHANNELS 3 Zrotation Xrotation Yrotation
                JOINT rPinky2
                {
                  OFFSET -1.82734 -0.647385 -0.700984
                  CHANNELS 3 Zrotation Xrotation Yrotation
                  End Site
                  {
                    OFFSET -1.69225 -0.51767 -0.607171
                  }
                }
              }
            }
          }
        }
      }
      JOINT lCollar
      {
        OFFSET 2.68224 19.2634 -4.8768
        CHANNELS 3 Zrotation Xrotation Yrotation
        JOINT lShldr
        {
          OFFSET 8.77824 -1.95073 1.46304
          CHANNELS 3 Zrotation Xrotation Yrotation
          JOINT lForeArm
          {
            OFFSET 28.1742 -1.7115 0.48768
            CHANNELS 3 Zrotation Xrotation Yrotation
            JOINT lHand
            {
              OFFSET 22.5879 0.773209 7.07136
              CHANNELS 3 Zrotation Xrotation Yrotation
              JOINT lThumb1
              {
                OFFSET 1.2192 -0.487915 3.41376
                CHANNELS 3 Zrotation Xrotation Yrotation
                JOINT lThumb2
                {
                  OFFSET 3.37035 -0.52449 3.41376
                  CHANNELS 3 Zrotation Xrotation Yrotation
                  End Site
                  {
                    OFFSET 1.78271 -1.18214 1.43049
                  }
                }
              }
              JOINT lIndex1
              {
                OFFSET 7.75947 0.938293 5.60832
                CHANNELS 3 Zrotation Xrotation Yrotation
                JOINT lIndex2
                {
                  OFFSET 2.54057 -0.884171 1.56538
                  CHANNELS 3 Zrotation Xrotation Yrotation
                  End Site
                  {
                    OFFSET 1.62519 -0.234802 1.16502
                  }
                }
              }
              JOINT lMid1
              {
                OFFSET 8.24714 1.18213 3.41376
                CHANNELS 3 Zrotation Xrotation Yrotation
                JOINT lMid2
                {
                  OFFSET 3.10165 -0.590103 1.0647
                  CHANNELS 3 Zrotation Xrotation Yrotation
                  End Site
                  {
                    OFFSET 2.48547 -0.328903 0.83742
                  }
                }
              }
              JOINT lRing1
              {
                OFFSET 8.82822 0.546677 1.51678
                CHANNELS 3 Zrotation Xrotation Yrotation
                JOINT lRing2
                {
                  OFFSET 2.60934 -0.819778 -0.0198488
                  CHANNELS 3 Zrotation Xrotation Yrotation
                  End Site
                  {
                    OFFSET 2.33842 -0.294052 0.168128
                  }
                }
              }
              JOINT lPinky1
              {
                OFFSET 8.27202 -0.0477905 -0.4584
                CHANNELS 3 Zrotation Xrotation Yrotation
                JOINT lPinky2
                {
                  OFFSET 1.82734 -0.647385 -0.700984
                  CHANNELS 3 Zrotation Xrotation Yrotation
                  End Site
                  {
                    OFFSET 1.69225 -0.51767 -0.607171
                  }
                }
              }
            }
          }
        }
      }
    }
  }
  JOINT rButtock
  {
    OFFSET -8.77824 4.35084 1.2192
    CHANNELS 3 Zrotation Xrotation Yrotation
    JOINT rThigh
    {
      OFFSET 0 -1.70687 -2.19456
      CHANNELS 3 Zrotation Xrotation Yrotation
      JOINT rShin
      {
        OFFSET 0 -36.8199 0.73152
        CHANNELS 3 Zrotation Xrotation Yrotation
        JOINT rFoot
        {
          OFFSET 0.73152 -45.1104 -5.12064
          CHANNELS 3 Zrotation Xrotation Yrotation
          End Site
          {
            OFFSET -1.1221 -3.69964 12.103
          }
        }
      }
    }
  }
  JOINT lButtock
  {
    OFFSET 8.77824 4.35084 1.2192
    CHANNELS 3 Zrotation Xrotation Yrotation
    JOINT lThigh
    {
      OFFSET 0 -1.70687 -2.19456
      CHANNELS 3 Zrotation Xrotation Yrotation
      JOINT lShin
      {
        OFFSET 0 -36.8199 0.73152
        CHANNELS 3 Zrotation Xrotation Yrotation
        JOINT lFoot
        {
          OFFSET -0.73152 -45.1104 -5.12064
          CHANNELS 3 Zrotation Xrotation Yrotation
          End Site
          {
            OFFSET 1.1221 -3.69964 12.103
          }
        }
      }
    }
  }
}
MOTION
Frames:	7
Frame Time:	0.00833333
82.70920000000001 85.0754 -30.157 144.941745 -88.572157 -140.769787 -5.90747 10.176043 -0.0 8.159141 -14.839453 5.169489 -17.326518 24.265612 -52.864772 32.477277 -1.217028 52.291531 -0.000917 0.0 -0.00135 0.004789 -0.0 -0.001715 3.284327 -26.942082 -5.275281 121.972027 49.55805 -53.650048 -2.211003 -47.983354 64.05227 -7.01423 10.239128 -1.012618 11.510294 -11.486607 -0.622749 -155.077565 -74.806728 129.439058 -90.225877 41.072709 75.796622 -6.090457 18.814339 -0.553239 -8.304425 20.652886 5.560434 9.920411 -20.34918 -1.534387 -72.352646 72.973612 90.218743 -59.263257 -82.110291 -76.24726 -7.147461 -15.706551 -6.729061 -73.600016 -54.915285 -73.619749 -0.071136 -0.427728 0.095432 -9.468976 1.579286 -28.509479 27.605093 -72.486095 -40.886116 7.859975 51.710219 -6.816241 -93.028315 -51.083389 -40.501094 55.371715 27.836769 -14.529876 46.210127 39.651868 -36.318609 161.274644 -6.16704 -111.928102 10.976162 25.789949 -7.639446 167.229124 -17.328287 -144.207543 73.164837 -72.142179 90.198255 79.223112 83.202063 -97.069212 86.307939 -50.443483 84.676241 -4.19705 2.113768 0.395016 179.984016 75.749845 0.010936 179.624821 39.529117 0.233043 11.723693 48.675543 44.634243 -164.402127 -8.309603 67.331421 179.995612 75.749846 0.004527 170.045061 54.717661 -180.0 8.799731 -47.402574 -105.259429 -3.896875 -16.684266 -58.08283
82.5642 85.09790000000001 -29.9473 115.407551 -87.868951 -111.849397 -7.054644 11.377664 -0.0 7.293172 -14.897817 4.924643 2.249991 23.598539 72.269635 -26.462291 -7.086533 -79.143942 -0.002029 -0.0 0.000224 -0.002029 -0.0 0.000224 0.117658 -0.714104 -0.157739 -85.372655 -18.544418 -171.061456 -156.359035 11.800738 -117.838743 -2.470281 -3.808371 -1.672987 -12.304765 11.515265 3.094886 -47.011348 23.2865 46.588232 -14.228174 19.203122 9.561124 -66.905171 48.570444 49.656282 -82.841013 61.111268 74.532043 -169.990906 -25.758317 144.108319 -145.120861 0.267903 -179.212187 -79.467938 87.679939 92.766409 -26.565146 -38.860408 -25.606538 -159.039555 55.077027 -149.520201 80.166185 68.37152 -83.260883 -177.189125 20.432504 -167.425638 6.741162 35.782967 -76.83534 8.698541 53.209396 -7.022955 7.758631 7.43913 -1.681539 118.267013 -11.90414 -105.415363 4.706563 7.224342 -2.853341 175.913704 -31.262045 -107.39436 151.476053 17.842074 -137.540086 163.200784 -4.796052 -142.991093 72.350135 72.976022 -90.217434 159.827243 -1.689655 -176.465776 144.107165 8.78245 140.874242 148.202427 13.799877 142.177746 -179.995348 75.749356 -0.003183 178.493595 38.076406 -177.558275 -6.361948 -61.727727 6.2806 37.064047 14.749206 162.399516 -179.995348 75.749356 -0.003183 169.055031 57.718746 -38.570387 -50.052589 22.737347 -88.752805 154.163632 4.79632 -172.610737
82.4302 85.0884 -29.768499999999996 106.536098 -86.904978 -103.389226 -5.872152 9.054784 -107.933336 10.003536 7.317162 110.737207 -17.420176 22.58309 -44.700187 32.468654 -4.130615 43.364428 -0.000435 -0.0 0.003318 -0.000792 0.0 -0.002391 3.206274 -26.010389 -5.105427 86.67926 13.850379 -33.234634 -6.550581 0.654513 69.555285 -5.329131 5.455247 -1.343166 11.110347 -11.091992 -0.639237 -155.445837 -74.874381 128.90919 5.920937 -10.174792 -2.967685 166.817095 -48.34235 97.677088 -169.087598 -33.247622 145.375527 0.87266 6.382287 1.314751 0.0009 -0.060901 -0.018781 9.357351 11.53509 1.48826 16.820637 58.946137 12.650824 51.216727 83.826423 -14.541763 -4.239773 -44.742699 8.648024 154.405111 -20.835899 -153.014258 157.842753 39.55187 124.005753 5.994762 46.077808 -5.783315 166.744713 -4.418462 -89.780983 28.280991 -31.759806 -6.903081 83.733126 42.331861 -69.98988 2.142639 12.969398 2.063421 164.637096 -19.283803 -144.733514 0.765866 10.864933 -2.184707 145.121552 1.974881 179.747961 67.289524 87.684584 -80.397426 25.53843 -38.087862 24.597235 127.981624 -28.845561 126.917014 -0.001169 -0.000734 -0.001169 -2.317729 -36.982591 -168.44139 -9.513679 -54.958501 76.789283 75.142278 61.955914 25.021932 -0.001169 -0.000734 -0.001169 -7.93917 -16.175226 -2.377156 -17.285913 41.979168 -58.209735 83.32545 66.111985 -0.561084
82.3232 85.0102 -29.5582 98.607017 -85.82904 -95.601985 -11.051905 11.761585 43.777349 -4.429506 -14.81304 -40.789517 2.801336 27.512218 98.844316 -31.54314 4.998198 -104.009717 0.000254 -0.0 -0.002132 0.000254 -0.0 -0.002132 -147.802214 28.731424 152.61959 134.34202 19.461972 130.943073 178.739507 -22.922709 73.397471 175.775252 -12.418043 143.590241 -103.199301 36.330559 60.111268 -153.270848 -26.606778 77.795056 -50.38717 40.825077 40.025641 -11.013002 23.670318 4.42172 -36.0372 51.722232 29.834026 -175.109456 -39.395678 143.222394 0.000182 -0.06112 -0.01734 -154.232101 12.766845 170.106435 26.970907 80.122731 10.140544 -4.011301 -12.689631 -5.523589 3.768086 17.921072 -4.640501 94.858846 52.390809 -94.70374 169.598216 8.194528 113.950958 8.311244 50.128528 -6.014908 -174.055076 -22.871376 -88.063166 -122.952844 -68.519638 -94.260872 -12.563343 -22.428045 5.202182 9.20355 28.173788 -8.97904 82.840792 61.110293 -74.532247 42.122444 58.44192 -36.388821 145.097255 -1.605494 178.622347 54.597145 87.580397 -67.942828 87.575727 -50.206536 85.929345 13.063705 -30.329378 15.684788 -179.979527 75.750928 -0.016845 175.99747 41.274416 -0.0 -9.79648 56.556397 -125.321671 66.928631 -28.117127 157.106957 -0.00046 -0.000108 0.000592 -7.690759 -16.433037 -73.138203 -40.447987 6.077459 86.141969 -150.176013 -23.784643 -3.16777
82.2062 84.8733 -29.3713 95.795706 -84.608083 -92.78161 -8.294054 9.332115 -104.428792 9.904455 4.803172 106.81517 -19.889661 25.973963 -70.410411 36.079707 11.919966 63.668138 -0.005133 0.0 -0.002402 0.000622 0.0 0.003545 -155.614146 -4.236696 161.990135 -42.714771 -80.124314 24.226625 99.248918 -10.629393 -179.285876 -102.498916 70.723441 81.084302 4.530959 -4.514082 -0.520101 -130.468487 -25.014157 116.678973 37.217141 -57.917375 -0.642331 12.537195 6.414778 -2.946955 -160.826616 -7.141925 143.315645 -25.592094 49.01684 21.191648 -70.379923 -72.130378 -87.279842 13.866196 29.738962 -0.477269 -123.036384 -31.103312 -120.854473 4.194195 2.766344 -0.773696 155.416898 -2.951048 -161.719787 113.865097 -62.287987 125.548269 32.68193 23.026504 82.408687 -96.525154 -63.673013 -87.19468 -11.111022 -11.091715 0.639357 -37.276936 -79.019471 24.351917 90.225075 41.071805 -75.796757 -1.161798 8.125738 3.762257 -173.121609 -66.297498 -137.613828 42.515821 58.334657 -36.418916 145.1204 0.227302 179.19813 -11.584869 58.796126 1.66657 12.374274 -24.158221 11.75744 158.725118 54.111956 149.842512 -0.000182 -0.001738 0.000234 -4.490641 -36.341022 -159.967091 -36.318237 -46.008651 -103.12514 149.335115 57.498355 131.223522 -179.99654 75.748517 -0.002847 164.17133 58.616778 -51.087777 -45.530898 2.558448 -3.775449 28.865201 -59.840883 110.593301
82.1002 84.6987 -29.174 92.755359 -83.515907 -89.489205 -9.376338 9.122448 -101.45324 9.773666 3.292439 103.504036 -18.470728 21.337675 -45.939062 33.760445 -0.968395 41.441393 0.001855 -0.0 -0.00328 -0.003635 -0.0 0.002622 -87.225809 68.083529 90.396036 0.515778 0.021414 87.623216 -149.604978 -81.601714 -84.868197 -6.952537 10.294611 -0.997098 -85.829547 38.630796 47.955327 -141.653068 -26.427926 80.789393 -152.466911 -19.22624 121.472209 -178.033911 -44.666253 114.695428 12.029741 -37.299154 -3.21576 3.041307 0.172076 0.041193 -0.007034 -0.872112 -0.27398 9.824513 7.251443 0.883202 -138.442887 -6.230492 -135.660337 -127.764201 -27.848419 -125.545914 157.846488 -65.803704 -175.512506 -36.7958 6.460976 4.290159 -122.482893 -25.741836 -42.60798 -171.052725 4.193279 -150.940705 171.706296 -9.388327 -89.948896 137.982939 9.921959 -69.390304 162.918905 -37.929476 -122.629172 -1.787598 21.170476 4.621686 161.154064 -8.160557 -143.465085 163.297263 -4.78559 -142.963762 145.118563 0.267888 179.212237 145.004261 -50.920795 167.281295 23.83936 -36.72706 22.932332 128.015501 -28.867115 126.93711 -179.979396 75.748634 -0.014097 174.145974 39.2379 -157.144614 -16.976051 -55.099333 39.981771 -170.567271 63.773084 -95.364214 -179.996216 75.750135 -0.003904 160.783823 58.873187 16.417014 -7.366605 49.247768 132.054133 101.73833 81.49767 160.294473
82.0142 84.5526 -29.018 89.091377 -82.696035 -85.331888 -12.479572 11.578466 -0.0 2.818961 -12.607417 2.230532 -18.194235 32.307402 -115.552103 24.780197 35.764873 104.315294 0.00386 0.0 0.003336 -0.001864 -0.0 0.00348 -152.13548 14.084282 157.564439 97.711753 -34.851634 152.516603 60.633444 -23.27251 101.505017 -38.523008 59.771695 20.947591 -87.918423 38.514083 49.435878 -22.407952 -7.890574 33.209265 16.330126 -29.348321 -5.839334 -30.826995 42.739742 24.586767 6.909681 -21.62389 -2.809164 -176.54273 -42.232544 142.888787 -145.122856 1.975964 -179.747747 -79.754182 87.677539 92.914437 -86.001132 -50.500521 -84.371362 4.195749 2.113789 -0.393038 0.122466 0.727028 -0.16187 5.591062 12.458867 -42.132221 78.968184 -85.087784 18.68197 7.250803 39.589815 -3.608973 93.743899 37.963554 -53.548307 124.309886 -16.311105 -75.353556 14.227945 19.203707 -9.559431 85.146222 47.960885 -64.746023 -173.122099 -66.297635 -137.613026 161.412378 1.305758 -142.327211 71.924618 72.972855 -89.772517 61.237498 -82.201966 78.234296 124.8496 -29.039428 122.62326 -10.829824 22.625099 -3.788021 -0.00228 -0.001486 -0.00228 -7.120384 -33.958345 24.250549 24.505654 48.886741 -142.46443 79.50523 -59.917121 167.641862 179.996678 75.74828 0.003427 161.571697 56.38892 -158.193919 11.651425 -41.25462 150.701829 112.298453 22.967962 -27.267897
